<svg xmlns="http://www.w3.org/2000/svg" viewBox="0 0 720 720">
  <rect width="720" height="720" fill="#fbf7ec"/>
  <g fill="none" stroke-linecap="round" stroke-linejoin="round">
    <g stroke="#b8afa0" stroke-width="4" opacity=".42" stroke-dasharray="13 13">
      <ellipse cx="360" cy="317" rx="238" ry="142"/>
      <rect x="282" y="324" width="156" height="246" rx="66"/>
      <path d="M360 161v407M122 317h476"/>
    </g>
    <g stroke="#39352f" stroke-width="8">
      <path d="M101 343c28-132 129-224 261-224 133 0 236 91 260 224-74 37-442 39-521 0Z"/>
      <path d="M107 344c91 63 418 65 509 1"/>
      <path d="M290 397c-7 53-7 105-2 157-34 17-51 40-54 69 76 23 185 23 257-2-5-28-23-50-57-66 7-51 7-104-1-158"/>
      <path d="M290 397c38 14 105 14 143 0"/>
      <path d="M203 268c18-24 39-24 62 0m70-61c18-24 39-24 62 0m69 61c18-24 39-24 62 0"/>
      <path d="m215 325 17-13m90 24 19-15m99 10 17-13"/>
      <path d="M298 493c40 13 88 13 129 0"/>
    </g>
    <g stroke="#d88c91" stroke-width="18" opacity=".55">
      <path d="M117 333c65 30 421 30 488 0"/>
      <path d="M149 267c74-110 177-145 294-117"/>
      <path d="M474 164c52 35 91 83 116 143"/>
    </g>
    <g fill="#f2b83d" stroke="none" opacity=".7">
      <circle cx="234" cy="256" r="13"/>
      <circle cx="364" cy="196" r="14"/>
      <circle cx="497" cy="259" r="12"/>
    </g>
  </g>
</svg>
