<svg xmlns="http://www.w3.org/2000/svg" viewBox="0 0 560 430">
  <g fill="none" stroke="#28251f" stroke-linecap="round" stroke-linejoin="round">
    <path d="M40 94c78-30 157-26 231 11v257c-73-38-151-41-231-11Z" fill="#fffaf0" stroke-width="4"/>
    <path d="M520 94c-78-30-157-26-231 11v257c73-38 151-41 231-11Z" fill="#fffaf0" stroke-width="4"/>
    <path d="M271 105c7 50 8 175 0 257M289 105c-7 50-8 175 0 257" stroke-width="3"/>
    <path d="M57 113c60-18 126-14 191 11M311 124c63-25 127-27 190-9M65 239c63-17 124-13 181 8M313 244c61-20 122-20 183-4" stroke="#d0c6b4" stroke-width="2"/>

    <g stroke-width="3">
      <path d="M79 188c7-37 33-58 65-51 25 6 41 28 36 52-6 29-31 43-62 37-30-6-45-17-39-38Z"/>
      <path d="m100 143-9-27 29 22m26 1 26-23-9 34"/>
      <circle cx="112" cy="170" r="3" fill="#28251f"/>
      <circle cx="149" cy="171" r="3" fill="#28251f"/>
      <path d="M119 193c9 6 18 6 27-1"/>

      <path d="M92 326c24-32 51-37 84-17 24 15 39 34 49 57-42 11-91 5-133-18Z"/>
      <path d="M114 321c14-15 14-32 3-50 25 5 39 20 42 44m-4 7c12-15 27-18 47-8-7 19-21 27-42 23"/>

      <path d="M332 195c6-29 26-49 53-49s47 18 50 48c-10 18-91 19-103 1Z"/>
      <path d="M350 157c-2-21 13-34 30-35 1 19-10 32-30 35Zm41-4c8-18 24-22 38-15-7 16-19 22-38 15Z"/>
      <path d="M331 195h106m-78-19 8 7m26-10 7 9"/>

      <path d="M385 355c-4-29 0-57 7-83m1 15c-22 0-35-11-38-29 20-3 34 4 39 23m1 6c23-2 36-13 38-31-20-2-34 6-39 24"/>
      <path d="M394 273c-10-9-9-23 1-34 12 10 13 24 2 36"/>
      <path d="M368 356c12-9 40-9 54 0"/>
    </g>

    <g fill="#dc623f" stroke="none" font-family="sans-serif" font-size="13" font-weight="700">
      <text x="72" y="255">DAY 08</text>
      <text x="323" y="255">DAY 09</text>
      <text x="72" y="382">DAY 10</text>
      <text x="323" y="382">DAY 11</text>
    </g>

    <path d="M72 61c26-17 55-20 87-10M402 52c31-9 59-5 84 12" stroke="#43899a" stroke-width="4"/>
    <path d="m73 52-18-13m21 5-4-22m335 19 14-18m-5 25 24-10" stroke="#f2b83d" stroke-width="5"/>
  </g>
  <path d="M89 86c37-12 80-10 126 4" fill="none" stroke="#e3c98f" stroke-width="19" opacity=".45" transform="rotate(-3 152 87)"/>
  <path d="M345 88c39-13 82-13 127 2" fill="none" stroke="#e3c98f" stroke-width="19" opacity=".45" transform="rotate(2 408 88)"/>
</svg>
