<svg xmlns="http://www.w3.org/2000/svg" viewBox="0 0 72 72">
  <g stroke="#28251f" stroke-width="2.4" stroke-linejoin="round">
    <path d="m12 58 8-20L48 9l12 12-29 29-19 8Z" fill="#f3b63c"/>
    <path d="M20 38 9 62l22-12Z" fill="#e8c89b"/>
    <path d="m48 9 6-6 12 12-6 6Z" fill="#dd5b43"/>
  </g>
  <path d="m20 38 11 12M25 32l12 12M31 26l12 12M37 20l12 12" fill="none" stroke="#d69320" stroke-width="1.7" opacity=".8"/>
  <path d="m9 62 4-9 6 6Z" fill="#28251f"/>
  <path d="M22 39 50 11M28 46 56 17" fill="none" stroke="#fff1b8" stroke-width="2" stroke-linecap="round" opacity=".9"/>
  <path d="M13 64c8 2 17 1 25-3" fill="none" stroke="#43899a" stroke-width="2.2" stroke-linecap="round"/>
</svg>
