<svg xmlns="http://www.w3.org/2000/svg" viewBox="0 0 720 720">
  <rect width="720" height="720" fill="#fbf7ec"/>
  <g fill="none" stroke-linecap="round" stroke-linejoin="round">
    <g stroke="#b8afa0" stroke-width="4" opacity=".45" stroke-dasharray="13 13">
      <path d="M356 605c-14-177-6-329 24-456"/>
      <ellipse cx="360" cy="249" rx="143" ry="106" transform="rotate(-8 360 249)"/>
      <path d="M355 151v410M230 260h276"/>
    </g>
    <g stroke="#39352f" stroke-width="8">
      <path d="M354 601c-10-128-4-246 20-354"/>
      <path d="M373 323c-104 2-174-50-186-144 98-15 174 25 194 125-4 8-6 14-8 19Z"/>
      <path d="M381 310c105-8 173-66 177-162-103-8-174 39-185 145 2 6 5 12 8 17Z"/>
      <path d="M379 248c-58-51-57-121-2-181 66 53 68 124 4 184"/>
      <path d="M279 654c55-39 143-40 202-1"/>
      <path d="M287 607c-35-20-66-21-93-2m287 7c33-20 62-20 88 1"/>
      <path d="M278 189c26 35 56 65 93 91m95-105c-26 39-55 73-88 103"/>
    </g>
    <g stroke="#6d8763" stroke-width="18" opacity=".55">
      <path d="M210 181c38 67 91 102 160 120"/>
      <path d="M548 150c-34 71-90 117-164 143"/>
      <path d="M376 76c31 61 32 116 4 169"/>
    </g>
    <path d="M167 657c117-29 269-29 408 2" fill="none" stroke="#a87b55" stroke-width="15" opacity=".4" stroke-linecap="round"/>
  </g>
</svg>
